<svg width="16" height="16" viewBox="0 0 16 16" fill="none" xmlns="http://www.w3.org/2000/svg">
<g clip-path="url(#clip0)">
<path d="M0.437639 6.78721C0.154974 6.02368 -0.0497145 5.24392 0.0120169 4.41542C0.0510052 3.90532 0.242697 3.46995 0.616335 3.11256C1.02246 2.72918 1.40585 2.3263 1.80548 1.93642C2.32532 1.42307 2.97837 1.42632 3.49822 1.93642C3.81987 2.25157 4.13827 2.57322 4.45668 2.89488C4.76534 3.20353 5.07724 3.51219 5.3859 3.8241C5.92849 4.37318 5.93173 5.01324 5.38915 5.55908C4.99927 5.94896 4.61263 6.34209 4.21625 6.72547C4.11228 6.82619 4.10254 6.91067 4.15777 7.03738C4.41769 7.66119 4.79458 8.21677 5.21695 8.73662C6.06819 9.7828 7.0299 10.712 8.17681 11.4301C8.42373 11.5828 8.6934 11.6965 8.95008 11.8362C9.08329 11.9077 9.17101 11.8849 9.27823 11.7745C9.66486 11.3748 10.0612 10.9817 10.4576 10.5886C10.9775 10.0752 11.6273 10.072 12.1471 10.5886C12.7839 11.2189 13.4175 11.8524 14.0478 12.4892C14.5774 13.0221 14.5741 13.6751 14.0413 14.2112C13.6807 14.5751 13.3005 14.9195 12.9626 15.2996C12.4688 15.852 11.845 16.0339 11.1367 15.9949C10.1035 15.9397 9.15152 15.5953 8.23204 15.1502C6.19166 14.1592 4.45018 12.7849 2.99137 11.0499C1.91269 9.76331 1.02246 8.36623 0.437639 6.78721ZM16.0005 7.95036C16.0005 3.56743 12.433 0 8.0501 0V1.51404C11.598 1.51404 14.4864 4.40242 14.4864 7.95036H16.0005ZM11.6468 7.95036H13.1608C13.1608 5.13345 10.867 2.83964 8.0501 2.83964V4.35369C9.01181 4.35369 9.91504 4.72733 10.5941 5.40637C11.2731 6.08542 11.6468 6.98864 11.6468 7.95036Z" fill="#FFA901"/>
</g>
<defs>
<clipPath id="clip0">
<rect width="16" height="16" fill="white"/>
</clipPath>
</defs>
</svg>
