<svg width="142" height="102" viewBox="0 0 142 102" fill="none" xmlns="http://www.w3.org/2000/svg">
<path d="M33.3983 59.9478V40.9565H30.2175V59.9478H25.4463V24.3392C25.4463 20.9479 28.2863 18.1218 31.6943 18.1218C35.2159 18.1218 38.0559 20.9479 38.0559 24.3392V59.9478H33.3983ZM30.3311 36.2087H33.5119V24.3392C33.5119 23.5479 32.8303 22.7565 31.9215 22.7565C31.1263 22.7565 30.3311 23.4348 30.3311 24.3392V36.2087Z" fill="white"/>
<path d="M41.5771 59.9478V18.3478H46.3483V36.2087H49.5291V18.3478H54.3003V59.9478H49.5291V40.9565H46.3483V59.9478H41.5771Z" fill="white"/>
<path d="M67.8187 18.3478V23.0957H62.3659V59.9478H57.5947V18.3478H67.8187Z" fill="white"/>
<path d="M77.3612 59.9478V40.9565H74.1804V59.9478H69.4092V24.3392C69.4092 20.9479 72.2492 18.1218 75.6572 18.1218C79.1788 18.1218 82.0188 20.9479 82.0188 24.3392V59.9478H77.3612ZM74.294 36.2087H77.4748V24.3392C77.4748 23.5479 76.7932 22.7565 75.8844 22.7565C75.0892 22.7565 74.294 23.4348 74.294 24.3392V36.2087Z" fill="white"/>
<path d="M91.7884 18.3478C95.31 18.3478 98.15 21.1739 98.15 24.5652V34.6261C98.15 38.0174 95.31 40.9565 91.7884 40.9565H90.198V59.9478H85.4268V18.3478H91.7884ZM90.3116 23.0957V36.2087H91.902C92.8108 36.2087 93.4924 35.4174 93.4924 34.6261V24.5652C93.4924 23.6609 92.8108 22.9826 91.902 22.9826H90.3116V23.0957Z" fill="white"/>
<path d="M26.9234 78.1478C26.8098 78.1478 26.6962 78.1478 26.469 78.1478C26.3554 78.1478 26.1282 78.1478 26.0146 78.0348V75.6608C26.1282 75.6608 26.2418 75.6608 26.3554 75.6608C26.6962 75.6608 26.9234 75.5478 27.1506 75.3217C27.3778 75.0956 27.605 74.7565 27.7186 74.3043C27.8322 73.8522 27.9458 73.1739 28.0594 72.3826C28.173 71.5913 28.173 70.5739 28.173 69.2174V65.4869H37.4882V77.8087H34.8754V67.6348H30.5586V69.6695C30.5586 71.3652 30.445 72.7217 30.3314 73.7391C30.2178 74.8695 29.877 75.6609 29.6498 76.3391C29.309 77.0174 28.9682 77.4695 28.4002 77.6956C28.173 78.0348 27.605 78.1478 26.9234 78.1478Z" fill="white"/>
<path d="M46.3492 78.1478C45.554 78.1478 44.7588 78.0348 43.9636 77.8087C43.282 77.5826 42.6004 77.1304 42.0324 76.6783C41.4644 76.113 41.01 75.5478 40.6692 74.7565C40.3284 73.9652 40.2148 73.0609 40.2148 71.9304V71.4783C40.2148 70.4609 40.3284 69.5565 40.6692 68.7652C41.01 67.9739 41.3508 67.4087 41.9188 66.8435C42.4868 66.3913 43.0548 65.9391 43.7364 65.713C44.418 65.4869 45.2132 65.3739 46.0084 65.3739C47.9396 65.3739 49.3028 65.8261 50.3252 66.8435C51.3476 67.8609 51.802 69.3304 51.802 71.1391V72.3826H42.714C42.714 73.0609 42.8276 73.513 43.0548 73.9652C43.282 74.4174 43.5092 74.7565 43.85 74.9826C44.1908 75.2087 44.5316 75.4348 44.986 75.5478C45.4404 75.6609 45.7812 75.7739 46.2356 75.7739C47.1444 75.7739 47.826 75.6609 48.1668 75.3217C48.6212 75.0956 48.8484 74.6435 48.962 74.1913H51.5748C51.3476 75.4348 50.666 76.3391 49.7572 77.0174C48.8484 77.8087 47.7124 78.1478 46.3492 78.1478ZM46.2356 67.5217C45.7812 67.5217 45.4404 67.5217 44.986 67.6348C44.5316 67.7478 44.1908 67.9739 43.9636 68.2C43.6228 68.4261 43.3956 68.7652 43.282 69.1043C43.0548 69.4435 42.9412 69.8956 42.9412 70.4609H49.4164C49.4164 69.8956 49.3028 69.4435 49.1892 68.9913C49.0756 68.6522 48.8484 68.313 48.5076 68.0869C48.2804 67.8609 47.9396 67.7478 47.4852 67.6348C47.0308 67.5217 46.69 67.5217 46.2356 67.5217Z" fill="white"/>
<path d="M54.5283 65.6H63.1619V67.7478H57.1411V77.9217H54.5283V65.6Z" fill="white"/>
<path d="M65.207 65.6H67.8198V70.5739H69.183L73.4998 65.6H76.3398L71.1142 71.4782L76.567 77.9217H73.3862L69.183 72.6087H67.8198V77.8087H65.207V65.6Z" fill="white"/>
<path d="M83.6097 78.1478C82.7009 78.1478 81.9057 78.0348 81.2241 77.6956C80.4289 77.4696 79.8609 77.0174 79.2929 76.4522C78.7249 75.8869 78.2705 75.3217 78.0433 74.5304C77.7025 73.7391 77.5889 72.8348 77.5889 71.8174V71.3652C77.5889 70.3478 77.7025 69.5565 78.0433 68.7652C78.3841 67.9739 78.8385 67.4087 79.2929 66.8435C79.7473 66.2783 80.4289 65.9391 81.2241 65.713C81.9057 65.4869 82.8145 65.3739 83.6097 65.3739C84.5185 65.3739 85.3137 65.4869 85.9953 65.713C86.7905 65.9391 87.3585 66.3913 87.9265 66.8435C88.4945 67.4087 88.9489 67.9739 89.1761 68.7652C89.5169 69.5565 89.6305 70.3478 89.6305 71.3652V71.8174C89.6305 72.8348 89.5169 73.7391 89.1761 74.5304C88.8353 75.3217 88.3809 76 87.9265 76.4522C87.3585 77.0174 86.7905 77.3565 85.9953 77.6956C85.3137 78.0348 84.5185 78.1478 83.6097 78.1478ZM83.6097 75.8869C84.0641 75.8869 84.5185 75.7739 84.8593 75.6609C85.3137 75.5478 85.6545 75.3217 85.9953 74.9826C86.3361 74.6435 86.5633 74.1913 86.7905 73.7391C87.0177 73.1739 87.1313 72.6087 87.1313 71.9304V71.4783C87.1313 70.8 87.0177 70.2348 86.7905 69.7826C86.5633 69.3304 86.3361 68.8783 85.9953 68.6522C85.6545 68.4261 85.3137 68.0869 84.8593 67.9739C84.4049 67.8609 84.0641 67.7478 83.6097 67.7478C83.1553 67.7478 82.7009 67.8609 82.3601 67.9739C81.9057 68.0869 81.5649 68.313 81.2241 68.6522C80.8833 68.9913 80.6561 69.3304 80.4289 69.7826C80.2017 70.2348 80.0881 70.8 80.0881 71.4783V71.9304C80.0881 72.6087 80.2017 73.2869 80.4289 73.7391C80.6561 74.3043 80.8833 74.6435 81.2241 74.9826C81.5649 75.3217 81.9057 75.5478 82.3601 75.6609C82.8145 75.8869 83.1553 75.8869 83.6097 75.8869Z" fill="white"/>
<path d="M109.624 12.8087C109.624 12.8087 116.44 24.1131 115.304 35.8696L113.713 33.8348C113.713 33.8348 112.237 43.4435 110.192 49.887C110.078 50.3391 110.646 52.487 110.419 52.8261L108.829 50.7913C108.829 50.7913 99.1726 66.5044 97.5822 70.2348C95.9918 73.9652 96.4462 76.2261 96.4462 76.2261C96.4462 76.2261 104.853 69.1044 111.101 59.0435C113.6 54.9739 115.531 50.3391 116.781 45.8174C111.896 72.3826 85.3134 85.2696 84.9726 85.3826L83.2686 87.9826C83.3822 87.8696 89.971 84.7044 97.355 78.3739C99.1726 78.487 104.398 78.1478 110.76 72.3826L108.261 71.7044L111.328 71.4783C111.328 71.4783 121.665 63.6783 124.051 51.4696L121.779 51.9218L123.824 50C123.824 50 130.526 31.4609 109.624 12.8087Z" fill="#FFA901"/>
</svg>
